<svg xmlns="http://www.w3.org/2000/svg" viewBox="0 0 500 500"><g id="freepik--background-complete--inject-32"><rect y="382.4" width="500" height="0.25" style="fill:#ebebeb"></rect><rect x="416.78" y="398.49" width="33.12" height="0.25" style="fill:#ebebeb"></rect><rect x="322.53" y="401.21" width="8.69" height="0.25" style="fill:#ebebeb"></rect><rect x="396.59" y="389.21" width="19.19" height="0.25" style="fill:#ebebeb"></rect><rect x="52.46" y="390.89" width="43.19" height="0.25" style="fill:#ebebeb"></rect><rect x="104.56" y="390.89" width="6.33" height="0.25" style="fill:#ebebeb"></rect><rect x="131.47" y="395.11" width="93.68" height="0.25" style="fill:#ebebeb"></rect><path d="M237,337.8H43.91a5.71,5.71,0,0,1-5.7-5.71V60.66A5.71,5.71,0,0,1,43.91,55H237a5.71,5.71,0,0,1,5.71,5.71V332.09A5.71,5.71,0,0,1,237,337.8ZM43.91,55.2a5.46,5.46,0,0,0-5.45,5.46V332.09a5.46,5.46,0,0,0,5.45,5.46H237a5.47,5.47,0,0,0,5.46-5.46V60.66A5.47,5.47,0,0,0,237,55.2Z" style="fill:#ebebeb"></path><path d="M453.31,337.8H260.21a5.72,5.72,0,0,1-5.71-5.71V60.66A5.72,5.72,0,0,1,260.21,55h193.1A5.71,5.71,0,0,1,459,60.66V332.09A5.71,5.71,0,0,1,453.31,337.8ZM260.21,55.2a5.47,5.47,0,0,0-5.46,5.46V332.09a5.47,5.47,0,0,0,5.46,5.46h193.1a5.47,5.47,0,0,0,5.46-5.46V60.66a5.47,5.47,0,0,0-5.46-5.46Z" style="fill:#ebebeb"></path><rect x="96.86" y="117.99" width="119.56" height="264.41" style="fill:#f0f0f0"></rect><rect x="102.53" y="117.99" width="113.89" height="264.41" style="fill:#f5f5f5"></rect><rect x="33.26" y="199.25" width="252.41" height="101.89" transform="translate(409.66 90.72) rotate(90)" style="fill:#f0f0f0"></rect><path d="M188.24,246.17h8.46a4.25,4.25,0,0,0,4.23-4.24h0a4.25,4.25,0,0,0-4.23-4.24h-8.46a4.26,4.26,0,0,0-4.24,4.24h0A4.26,4.26,0,0,0,188.24,246.17Z" style="fill:#fff"></path><rect x="83.43" y="249.41" width="252.41" height="1.56" transform="translate(459.83 40.56) rotate(90)" style="fill:#f0f0f0"></rect><rect x="284.53" y="268.78" width="27.18" height="109.01" style="fill:#f0f0f0"></rect><rect x="289.74" y="377.79" width="134.03" height="4.61" style="fill:#f0f0f0"></rect><rect x="311.7" y="268.78" width="117.29" height="109.01" transform="translate(740.7 646.57) rotate(180)" style="fill:#f5f5f5"></rect><rect x="322.39" y="277.72" width="95.92" height="23.84" transform="translate(740.7 579.29) rotate(180)" style="fill:#f0f0f0"></rect><rect x="322.39" y="308.68" width="95.92" height="60.16" transform="translate(740.7 677.53) rotate(180)" style="fill:#f0f0f0"></rect><rect x="356.93" y="288.01" width="26.84" height="3.27" rx="1.31" style="fill:#f5f5f5"></rect><rect x="356.93" y="335.92" width="26.84" height="3.27" rx="1.31" style="fill:#f5f5f5"></rect><rect x="390.39" y="129.11" width="38.35" height="72.3" style="fill:#e6e6e6"></rect><rect x="392.29" y="129.11" width="45.04" height="72.3" style="fill:#f5f5f5"></rect><rect x="385.08" y="149.59" width="59.45" height="31.33" transform="translate(580.07 -249.56) rotate(90)" style="fill:#fff"></rect><rect x="326.96" y="107.97" width="38.35" height="72.3" style="fill:#e6e6e6"></rect><rect x="328.85" y="107.97" width="45.04" height="72.3" style="fill:#f5f5f5"></rect><rect x="321.65" y="128.45" width="59.45" height="31.33" transform="translate(495.49 -207.26) rotate(90)" style="fill:#fff"></rect><rect x="268.88" y="154.69" width="38.35" height="72.3" style="fill:#e6e6e6"></rect><rect x="270.78" y="154.69" width="45.05" height="72.3" style="fill:#f5f5f5"></rect><rect x="263.57" y="175.17" width="59.45" height="31.33" transform="translate(484.14 -102.47) rotate(90)" style="fill:#fff"></rect></g><g id="freepik--Shadow--inject-32"><ellipse id="freepik--path--inject-32" cx="250" cy="416.24" rx="193.89" ry="11.32" style="fill:#f5f5f5"></ellipse></g><g id="freepik--Board--inject-32"><rect x="112.6" y="145.11" width="191.11" height="139.11" rx="4.89" style="fill:#263238"></rect><rect x="205.38" y="138.81" width="5.56" height="274.65" rx="1.17" style="fill:#263238"></rect><path d="M202.2,407.9h11.9a4.66,4.66,0,0,1,4.66,4.66v.57a.33.33,0,0,1-.33.33H197.87a.33.33,0,0,1-.33-.33v-.57a4.66,4.66,0,0,1,4.66-4.66Z" style="fill:#263238"></path><rect x="261.15" y="141.61" width="16" height="1" style="fill:#407BFF"></rect><rect x="246.71" y="141.61" width="4.89" height="1" style="fill:#407BFF"></rect><rect x="113.31" y="145.11" width="191.11" height="139.11" rx="4.89" style="fill:#407BFF"></rect><rect x="144.31" y="124.11" width="129.11" height="181.11" rx="4.22" transform="translate(423.53 5.8) rotate(90)" style="fill:#fff;opacity:0.7000000000000001"></rect><path d="M171,213a343.2,343.2,0,0,0-35.08-1.48c.11-15.9,1.53-33.09,2.78-50l34.38,2.21C171.75,183.46,170.43,203.25,171,213Z" style="opacity:0.2"></path><path d="M171.66,212.29a340.37,340.37,0,0,0-35.08-1.48c.11-15.91.84-32.37,2.09-49.29L173.75,163C172.44,182.73,171.12,202.53,171.66,212.29Z" style="fill:#fff"></path><polygon points="217.7 246.87 182.63 248.4 181.17 198.39 215.56 197.58 217.7 246.87" style="opacity:0.2"></polygon><rect x="182.23" y="197.6" width="35.11" height="49.33" transform="translate(-9.48 8.91) rotate(-2.49)" style="fill:#fff"></rect><polygon points="295.89 245.68 261.08 241.09 268.34 191.59 302.34 196.77 295.89 245.68" style="opacity:0.2"></polygon><rect x="264.97" y="193.67" width="35.11" height="49.33" transform="translate(30.98 -35.08) rotate(7.52)" style="fill:#fff"></rect><path d="M176.22,281.84c-6.36,2-22.74,2.31-35,1.7-1.75-15.4-1.57-32.64-1.13-50l34.39-.57C173.72,244.89,174.31,266.1,176.22,281.84Z" style="opacity:0.2"></path><path d="M176.92,281.12c-6.37,2-22.75,2.3-35,1.69a358.79,358.79,0,0,1-1.82-49.3l35.08-1.3C174.41,244.17,175,265.38,176.92,281.12Z" style="fill:#fff"></path><path d="M262.47,208l-35.1.77c-1.18-16.42-.84-33.59-.39-50l34.41,0C261,176.22,261.26,192.87,262.47,208Z" style="opacity:0.2"></path><path d="M263.16,207.26l-35.1.77Q226.3,183.4,227,158.71l35.1-.77C261.72,175.5,262,192.14,263.16,207.26Z" style="fill:#fff"></path></g><g id="freepik--Character--inject-32"><polygon points="277 401.01 269.25 398.93 272.01 380.43 279.76 382.51 277 401.01" style="fill:#ff8b7b"></polygon><polygon points="348.69 408.04 340.66 408.04 334.41 389.45 342.44 389.45 348.69 408.04" style="fill:#ff8b7b"></polygon><path d="M339.59,407.11h9.79a.7.7,0,0,1,.68.55l1.59,7.14a1.18,1.18,0,0,1-1.18,1.42c-3.15-.05-5.44-.24-9.41-.24-2.44,0-9.8.26-13.16.26s-3.81-3.33-2.43-3.64c6.18-1.35,10.84-3.21,12.82-5A2,2,0,0,1,339.59,407.11Z" style="fill:#263238"></path><path d="M269.55,398.05l8.46,2.27a.71.71,0,0,1,.52.71l-.32,7.3a1.16,1.16,0,0,1-1.48,1.08c-3-.87-7.41-2.24-11.25-3.27-4.49-1.2-8.43-2-13.69-3.41-3.18-.85-3.2-4.31-1.79-4.24,6.42.3,11.41,1.49,17.52-.34A3.69,3.69,0,0,1,269.55,398.05Z" style="fill:#263238"></path><path d="M311.05,168.69c-2.65,3.33-5.4,6.91-8,10.42s-5.1,7.14-7.4,10.78c-1.15,1.81-2.2,3.65-3.21,5.48l-2.76,5.43-.23.49c0,.05-.06.09-.07.08a1.61,1.61,0,0,1,0-.36,4.42,4.42,0,0,0-.1-.92,3.63,3.63,0,0,0-.14-.49c0-.1-.07-.2-.11-.3a3,3,0,0,0-.18-.41,5.24,5.24,0,0,0-.64-.94,5,5,0,0,0-1.21-1,4.88,4.88,0,0,0-1.48-.56,5.14,5.14,0,0,0-1.18-.08,4.11,4.11,0,0,0-1.31.28,3.08,3.08,0,0,0-.82.43c-.25.19-.24.22-.25.24s.06,0,.12,0a7.77,7.77,0,0,0,1-.81c.38-.33.76-.69,1.14-1.07,1.55-1.49,3.15-3.13,4.82-4.66l5.05,3.28a48.19,48.19,0,0,1-2.92,6.54,21.33,21.33,0,0,1-2.18,3.4,7.26,7.26,0,0,1-.49.55,6,6,0,0,1-.91.78,5.51,5.51,0,0,1-1.2.63,5.26,5.26,0,0,1-1.52.32,5.47,5.47,0,0,1-1.28-.09,5,5,0,0,1-1.58-.6,5.26,5.26,0,0,1-1.29-1.06,5.7,5.7,0,0,1-.7-1c-.07-.15-.15-.31-.21-.46l-.13-.35c-.08-.26-.12-.42-.16-.6a6,6,0,0,1-.12-1.34,8.83,8.83,0,0,1,.1-1.2c0-.29.08-.52.12-.74.09-.44.17-.8.25-1.15.33-1.37.68-2.52,1.08-3.68s.92-2.32,1.43-3.43c1-2.24,2.1-4.4,3.26-6.48a135.23,135.23,0,0,1,7.54-12c1.34-1.91,2.72-3.8,4.14-5.65s2.86-3.64,4.45-5.5Z" style="fill:#ff8b7b"></path><path d="M315.41,162.8c1.72,7.47-14.69,26.6-14.69,26.6L286,178.62a98.11,98.11,0,0,1,11.7-17.39C304.44,153.61,313.52,154.59,315.41,162.8Z" style="fill:#407BFF"></path><path d="M315.41,162.8c1.72,7.47-14.69,26.6-14.69,26.6L286,178.62a98.11,98.11,0,0,1,11.7-17.39C304.44,153.61,313.52,154.59,315.41,162.8Z" style="opacity:0.2"></path><polygon points="272.01 380.43 270.58 389.97 278.34 392.05 279.76 382.51 272.01 380.43" style="opacity:0.2"></polygon><polygon points="342.44 389.46 334.41 389.46 337.64 399.04 345.67 399.04 342.44 389.46" style="opacity:0.2"></polygon><path d="M351.32,161.68C340.87,191.6,340.68,224,339.51,230.5c-6.24-.83-29.74-4-42.55-5.73-2.88-45.94,9.74-68.7,9.74-68.7s2.78-.37,6.54-.53c1.18,0,2.45-.08,3.77-.07.73,0,1.47,0,2.22.05A159.1,159.1,0,0,1,337.32,158c1.13.21,2.28.45,3.39.7s2,.49,3,.74C348,160.53,351.32,161.68,351.32,161.68Z" style="fill:#407BFF"></path><path d="M351.32,161.68C340.87,191.6,340.68,224,339.51,230.5c-6.24-.83-29.74-4-42.55-5.73-2.88-45.94,9.74-68.7,9.74-68.7s2.78-.37,6.54-.53c1.18,0,2.45-.08,3.77-.07.73,0,1.47,0,2.22.05A159.1,159.1,0,0,1,337.32,158c1.13.21,2.28.45,3.39.7s2,.49,3,.74C348,160.53,351.32,161.68,351.32,161.68Z" style="opacity:0.2"></path><path d="M341.54,175.46c-1.69,4.51-.37,17,1.48,21.26.66-4.46,1.47-9.14,2.49-13.94Z" style="opacity:0.2"></path><path d="M289.12,190.14l6.36-6,4.14,9.38a7.72,7.72,0,0,1-9,1.5Z" style="fill:#ff8b7b"></path><polygon points="300.15 181.02 303.33 189.32 299.62 193.47 295.48 184.09 300.15 181.02" style="fill:#ff8b7b"></polygon><path d="M338.27,137.35c-1.93,5.67-4.5,16.18-.95,20.61-3.59,2.72-8.22,5.79-15.16,5.1s-5.09-5.28-2.93-7.54c6.7-.67,7.18-5.51,6.66-10.19Z" style="fill:#ff8b7b"></path><path d="M318,154c0-1.58,6.5-2.91,6.75-1.41s-2,2-1.29,4,7.26,2.2,9.88-.63c1.74-1.89,2.29-3.79,4.5-2.54s4.87,3,3.41,5.75-9.7,9.25-17.2,7.58-9.59-5.7-8.13-7.45A8.67,8.67,0,0,0,318,154Z" style="fill:#407BFF"></path><path d="M333.22,140.61l-7.33,4.72a18.19,18.19,0,0,1,.13,3.28,8.91,8.91,0,0,0,7.25-4.28C334.11,142.72,333.83,140.89,333.22,140.61Z" style="opacity:0.2"></path><path d="M339.48,127.35c-.71,7.94-.73,12.62-4.86,16.59-6.21,6-15.92,2-17.59-5.94-1.5-7.19-.08-19,7.78-21.9A10.86,10.86,0,0,1,339.48,127.35Z" style="fill:#ff8b7b"></path><path d="M340.09,121c-5.84-.44-6.33,9.7-1.5,14.06C344.43,132.77,352.59,121.89,340.09,121Z" style="fill:#263238"></path><path d="M334.31,122.58c-3.42-5.4-10,3.16-13.25-2.74-1.95-3.55-5.28.3-7.31-1.83s1.11-7.85,3.23-8.36c-1.19,1.29-1.42,5.9,2.15,3.62s6.13-4.64,10.5-.81,8.94-3.87,12.95,2C346.1,119.56,338.36,129,334.31,122.58Z" style="fill:#263238"></path><path d="M340.92,121.74a8.89,8.89,0,0,1-2.76-.45.37.37,0,1,1,.22-.71c2.56.81,5.05.38,6.19-1.06.89-1.12.82-2.66-.17-4.33a.37.37,0,0,1,.64-.38c1.15,1.92,1.19,3.81.12,5.17A5.27,5.27,0,0,1,340.92,121.74Z" style="fill:#263238"></path><path d="M342.82,136.22a7.61,7.61,0,0,1-4.81,3.21c-2.61.49-3.69-1.89-2.78-4.24.82-2.11,3.17-4.91,5.7-4.35S344.17,134.16,342.82,136.22Z" style="fill:#ff8b7b"></path><path d="M267.72,387.12l13.12,3.52s12.49-46.26,16.44-71c1.2-7.51,3.88-17.91,7.12-29,4.08-14,9.05-29.08,13.08-40.89,4.26-12.44,7.45-21.23,7.45-21.23l-28-3.77s-21.31,65.33-23.71,89.71C270.75,339.83,267.72,387.12,267.72,387.12Z" style="fill:#263238"></path><path d="M304.4,290.66c4.08-14,9.05-29.08,13.08-40.89L315,243.3C307.47,251.14,303.94,276.65,304.4,290.66Z" style="opacity:0.2"></path><path d="M312.05,226.81s-1.38,68.77.5,92.21c2.07,25.68,21.31,78.16,21.31,78.16h14.7s-9.81-48-12.81-73c-3.43-28.4,3.76-93.7,3.76-93.7Z" style="fill:#263238"></path><polygon points="332.1 397.5 349.41 397.5 349.41 392.33 330.06 391.99 332.1 397.5" style="fill:#407BFF"></polygon><polygon points="265.99 386.98 281.63 391.18 282.99 386.13 266.45 381.42 265.99 386.98" style="fill:#407BFF"></polygon><path d="M327.36,129.24c0,.64-.37,1.16-.8,1.15s-.75-.55-.73-1.2.38-1.16.8-1.15S327.38,128.59,327.36,129.24Z" style="fill:#263238"></path><path d="M320.05,129c0,.65-.38,1.16-.8,1.15s-.75-.55-.74-1.19.38-1.17.8-1.15S320.06,128.38,320.05,129Z" style="fill:#263238"></path><path d="M322.36,129.42a22.77,22.77,0,0,1-3.25,5.44,3.71,3.71,0,0,0,3.08.67Z" style="fill:#ff5652"></path><path d="M324.87,137.34a5.29,5.29,0,0,0,3.71-2,.19.19,0,0,0,0-.26.19.19,0,0,0-.27.05A5.12,5.12,0,0,1,324,137a.19.19,0,0,0-.2.19.19.19,0,0,0,.18.19A5.88,5.88,0,0,0,324.87,137.34Z" style="fill:#263238"></path><path d="M329.68,126.94a.36.36,0,0,0,.18-.07.38.38,0,0,0,.09-.53,3.79,3.79,0,0,0-3.05-1.66.38.38,0,0,0-.36.4.37.37,0,0,0,.39.36h0a3,3,0,0,1,2.4,1.34A.39.39,0,0,0,329.68,126.94Z" style="fill:#263238"></path><path d="M317,126.42a.36.36,0,0,0,.29-.2,3,3,0,0,1,2.2-1.66.38.38,0,0,0-.08-.75,3.74,3.74,0,0,0-2.79,2.06.37.37,0,0,0,.16.51A.34.34,0,0,0,317,126.42Z" style="fill:#263238"></path><path d="M336.94,408.52a9.76,9.76,0,0,0,2.1-.29.19.19,0,0,0,.14-.16.2.2,0,0,0-.08-.19c-.3-.18-2.89-1.77-3.77-1.32a.62.62,0,0,0-.33.54,1.17,1.17,0,0,0,.39,1A2.49,2.49,0,0,0,336.94,408.52Zm1.55-.56c-1.37.27-2.41.22-2.85-.15a.74.74,0,0,1-.26-.68.25.25,0,0,1,.12-.23C336,406.66,337.44,407.35,338.49,408Z" style="fill:#407BFF"></path><path d="M339,408.23a.2.2,0,0,0,.11,0,.17.17,0,0,0,.08-.17c0-.1-.2-2.42-1.13-3.18a1,1,0,0,0-.81-.24h0a.61.61,0,0,0-.6.49c-.17.9,1.43,2.66,2.26,3.11ZM337.37,405a.64.64,0,0,1,.44.17,4.49,4.49,0,0,1,.95,2.51c-.83-.63-1.85-2-1.75-2.48,0-.05,0-.17.28-.2h.08Z" style="fill:#407BFF"></path><path d="M268.5,398.92a.2.2,0,0,0,.16-.12.19.19,0,0,0-.05-.21c-.3-.28-3-2.7-4.08-2.43a.61.61,0,0,0-.43.41h0a1.08,1.08,0,0,0,.1,1c.65,1,2.95,1.27,4.27,1.36Zm-3.8-2.4c.64,0,2.15,1.05,3.23,2-1.79-.18-3.05-.59-3.41-1.14a.68.68,0,0,1-.06-.65.22.22,0,0,1,.16-.17Z" style="fill:#407BFF"></path><path d="M268.5,398.92l.05,0a.19.19,0,0,0,.12-.14c0-.09.37-2.24-.4-3.31a1.39,1.39,0,0,0-.94-.59h0c-.52-.08-.73.13-.82.33-.38.84,1,3,1.85,3.68A.24.24,0,0,0,268.5,398.92Zm-1.43-3.7h.2a1,1,0,0,1,.69.44,4.53,4.53,0,0,1,.38,2.66c-.8-.83-1.71-2.48-1.48-3C266.87,395.31,266.91,395.23,267.07,395.22Zm.23-.17Z" style="fill:#407BFF"></path><path d="M353.41,167.88c1.16,5.21,2.14,10.39,3,15.63s1.63,10.49,2.23,15.81l.21,2,.12,1.24a7.94,7.94,0,0,1-.26,2.89,7.19,7.19,0,0,1-2.07,3.4,7.43,7.43,0,0,1-2.9,1.61,10,10,0,0,1-3.85.31,22.12,22.12,0,0,1-4.92-1.12c-1.43-.49-2.75-1-4-1.61a78,78,0,0,1-7.33-3.83c-2.35-1.39-4.6-2.82-6.84-4.45l2.85-5.31c4.85,1.68,9.79,3.48,14.53,4.78,1.18.33,2.35.61,3.46.81a12,12,0,0,0,2.83.3c.29,0,.52-.13.06-.05a2.65,2.65,0,0,0-1.19.67,3.74,3.74,0,0,0-1.1,1.72,4.25,4.25,0,0,0-.15.93c0,.17,0-.1-.05-.24l-.09-.48-.36-1.9q-1.47-7.62-3-15.29c-1-5.11-2.06-10.25-3-15.34Z" style="fill:#ff8b7b"></path><path d="M354,163.65c5.24,5.61,5.71,22.84,5.71,22.84l-15.17,7.15s-4.92-10.95-5.08-20.86C339.3,161.54,348.75,158,354,163.65Z" style="fill:#407BFF"></path><path d="M354,163.65c5.24,5.61,5.71,22.84,5.71,22.84l-15.17,7.15s-4.92-10.95-5.08-20.86C339.3,161.54,348.75,158,354,163.65Z" style="opacity:0.2"></path><path d="M299.62,184.59a.57.57,0,0,1-.25-.06.51.51,0,0,1-.18-.69l8-13.81a.5.5,0,0,1,.86.5l-7.95,13.81A.51.51,0,0,1,299.62,184.59Z" style="fill:#263238"></path><path d="M324.44,223l-30.23-4.4a2.83,2.83,0,0,1-2.39-2.51l-2-41.73a1.8,1.8,0,0,1,2.2-1.85l30.23,4.39a2.87,2.87,0,0,1,2.4,2.52l1.95,41.73A1.8,1.8,0,0,1,324.44,223Z" style="fill:#fff"></path><path d="M323.76,223.42,293.53,219a2.84,2.84,0,0,1-2.4-2.51l-1.95-41.73a1.79,1.79,0,0,1,2.19-1.85l30.23,4.39a2.84,2.84,0,0,1,2.4,2.52l2,41.72A1.79,1.79,0,0,1,323.76,223.42Z" style="fill:#263238"></path><path d="M330.23,194.6l-7.11-4-.83,10.22s6.8,2.06,8.29-1.43Z" style="fill:#ff8b7b"></path><polygon points="315.2 192.43 316.2 200.07 322.29 200.83 323.12 190.61 315.2 192.43" style="fill:#ff8b7b"></polygon></g></svg>